<?xml version="1.0" standalone="no"?><svg xmlns="http://www.w3.org/2000/svg" viewBox="0 0 1440 320"><path fill="#8B0000" fill-opacity="1" d="M0,96L20,80C40,64,80,32,120,53.3C160,75,200,149,240,192C280,235,320,245,360,218.7C400,192,440,128,480,128C520,128,560,192,600,218.7C640,245,680,235,720,224C760,213,800,203,840,176C880,149,920,107,960,128C1000,149,1040,235,1080,266.7C1120,299,1160,277,1200,234.7C1240,192,1280,128,1320,128C1360,128,1400,192,1420,224L1440,256L1440,0L1420,0C1400,0,1360,0,1320,0C1280,0,1240,0,1200,0C1160,0,1120,0,1080,0C1040,0,1000,0,960,0C920,0,880,0,840,0C800,0,760,0,720,0C680,0,640,0,600,0C560,0,520,0,480,0C440,0,400,0,360,0C320,0,280,0,240,0C200,0,160,0,120,0C80,0,40,0,20,0L0,0Z"></path></svg>